<?xml version="1.0" encoding="UTF-8" standalone="no"?>
<svg
   width="800"
   height="565"
   overflow="hidden"
   version="1.1"
   id="svg16"
   sodipodi:docname="logo.svg"
   inkscape:version="1.4 (86a8ad7, 2024-10-11)"
   xmlns:inkscape="http://www.inkscape.org/namespaces/inkscape"
   xmlns:sodipodi="http://sodipodi.sourceforge.net/DTD/sodipodi-0.dtd"
   xmlns="http://www.w3.org/2000/svg"
   xmlns:svg="http://www.w3.org/2000/svg">
  <sodipodi:namedview
     id="namedview16"
     pagecolor="#ffffff"
     bordercolor="#000000"
     borderopacity="0.25"
     inkscape:showpageshadow="2"
     inkscape:pageopacity="0.0"
     inkscape:pagecheckerboard="0"
     inkscape:deskcolor="#d1d1d1"
     inkscape:zoom="1.01875"
     inkscape:cx="282.20859"
     inkscape:cy="242.94479"
     inkscape:window-width="1920"
     inkscape:window-height="1017"
     inkscape:window-x="-8"
     inkscape:window-y="-8"
     inkscape:window-maximized="1"
     inkscape:current-layer="svg16" />
  <defs
     id="defs1">
    <clipPath
       id="clip0">
      <rect
         x="0"
         y="0"
         width="565"
         height="800"
         id="rect1" />
    </clipPath>
  </defs>
  <g
     clip-path="url(#clip0)"
     id="g16"
     transform="matrix(1.307314,0,0,1.680484,27.910965,-351.41103)">
    <path
       d="m 78.7905,-43.7212 v 12.2404 h 4.155 c 3.2691,0 5.565,-0.5677 6.8876,-1.7031 1.3226,-1.1355 1.9839,-2.5891 1.9839,-4.3609 0,-1.7219 -0.574,-3.1818 -1.7219,-4.3796 -1.1479,-1.1979 -3.3065,-1.7968 -6.4758,-1.7968 z m 107.6255,-0.0749 v 11.1549 h 7.15 c 0.774,0 2.271,-0.2495 4.492,-0.7486 1.123,-0.2246 2.04,-0.7986 2.751,-1.7219 0.711,-0.9233 1.067,-1.9839 1.067,-3.1818 0,-1.7718 -0.561,-3.1318 -1.684,-4.0801 -1.123,-0.9483 -3.232,-1.4225 -6.326,-1.4225 z m 166.732,-11.08 h 16.957 v 41.363 H 396.57 V 0 h -43.422 z m -56.256,0 h 45.443 v 11.7164 h -28.448 v 8.7218 h 26.39 v 11.1923 h -26.39 v 10.818 h 29.272 V 0 h -46.267 z m -127.507,0 h 28.261 c 5.241,0 9.246,0.4492 12.016,1.3476 2.77,0.8984 5.004,2.5641 6.7,4.9972 1.697,2.4331 2.546,5.3966 2.546,8.8903 0,3.0445 -0.649,5.671 -1.948,7.8795 -1.298,2.2085 -3.083,3.999 -5.356,5.3716 -1.448,0.8734 -3.433,1.5971 -5.955,2.1711 2.02,0.6745 3.491,1.3489 4.414,2.0231 0.624,0.4495 1.528,1.4112 2.712,2.8849 1.185,1.4737 1.977,2.6102 2.376,3.4096 L 223.362,0 h -19.16 l -9.064,-16.7698 c -1.148,-2.1711 -2.171,-3.581 -3.069,-4.2298 -1.223,-0.8485 -2.608,-1.2728 -4.155,-1.2728 h -1.498 V 0 h -17.031 z m -107.6263,0 h 28.1867 c 6.1389,0 10.7366,1.4599 13.7936,4.3796 3.057,2.9198 4.586,7.0748 4.586,12.4651 0,5.54 -1.666,9.8697 -4.997,12.989 -3.332,3.1194 -8.4166,4.6791 -15.2542,4.6791 H 78.7905 V 0 H 61.7587 Z m 390.4733,-0.9358 c 7.013,0 12.359,1.3039 16.04,3.9117 3.681,2.6078 5.871,6.7566 6.57,12.4463 l -15.984,0.9358 c -0.424,-2.4705 -1.316,-4.2673 -2.677,-5.3903 -1.36,-1.1229 -3.237,-1.6844 -5.633,-1.6844 -1.972,0 -3.456,0.418 -4.455,1.254 -0.998,0.836 -1.497,1.8529 -1.497,3.0507 0,0.8735 0.412,1.6595 1.235,2.3583 0.799,0.7237 2.695,1.3975 5.69,2.0213 7.412,1.5972 12.721,3.213 15.928,4.8475 3.206,1.6346 5.54,3.6622 7,6.0828 1.459,2.4207 2.189,5.1283 2.189,8.1229 0,3.5186 -0.973,6.7628 -2.919,9.73244 -1.947,2.96965 -4.667,5.22184 -8.161,6.75657 -3.493,1.534737 -7.898,2.302103 -13.213,2.302103 -9.334,0 -15.797,-1.796761 -19.39,-5.390283 -3.594,-3.59352 -5.628,-8.16033 -6.102,-13.70033 l 16.133,-1.0107 c 0.35,2.6203 1.061,4.6167 2.134,5.9893 1.747,2.2209 4.242,3.33145 7.487,3.33145 2.42,0 4.286,-0.56775 5.596,-1.70315 1.31,-1.1355 1.965,-2.4519 1.965,-3.9492 0,-1.4224 -0.624,-2.6951 -1.872,-3.8181 -1.247,-1.123 -4.142,-2.1835 -8.684,-3.1817 -7.437,-1.672 -12.74,-3.893 -15.909,-6.663 -3.194,-2.77 -4.791,-6.3012 -4.791,-10.5934 0,-2.82 0.817,-5.4839 2.452,-7.9919 1.634,-2.508 4.092,-4.4794 7.374,-5.9143 3.281,-1.4349 7.78,-2.1524 13.494,-2.1524 z m -194.267,0 c 6.064,0 10.6,0.549 13.607,1.647 3.007,1.0981 5.502,2.8012 7.486,5.1096 1.984,2.3083 3.475,5.2343 4.473,8.7779 l -16.358,2.9197 c -0.673,-2.0712 -1.815,-3.6559 -3.425,-4.7539 -1.609,-1.098 -3.662,-1.647 -6.157,-1.647 -3.719,0 -6.682,1.2914 -8.891,3.8742 -2.208,2.5829 -3.312,6.6693 -3.312,12.2592 0,5.9393 1.116,10.1816 3.35,12.7271 2.233,2.5454 5.346,3.8181 9.339,3.8181 1.897,0 3.706,-0.2745 5.428,-0.8235 1.722,-0.5491 3.693,-1.4849 5.914,-2.8075 v -5.1657 h -11.342 v -11.4169 h 26.203 v 23.39534 c -5.016,3.41883 -9.452,5.74589 -13.307,6.981163 -3.856,1.235273 -8.429,1.85291 -13.719,1.85291 -6.513,0 -11.823,-1.110498 -15.928,-3.331493 -4.105,-2.221 -7.287,-5.52754 -9.545,-9.91962 -2.258,-4.3921 -3.388,-9.433 -3.388,-15.1227 0,-5.9892 1.236,-11.1986 3.706,-15.6281 2.471,-4.4295 6.089,-7.7922 10.856,-10.0881 3.718,-1.7718 8.721,-2.6577 15.01,-2.6577 z m -229.928,0 c 7.0123,0 12.3589,1.3039 16.0398,3.9117 3.6809,2.6078 5.8707,6.7566 6.5694,12.4463 l -15.9837,0.9358 c -0.4242,-2.4705 -1.3164,-4.2673 -2.6764,-5.3903 -1.36,-1.1229 -3.2379,-1.6844 -5.6336,-1.6844 -1.9714,0 -3.4563,0.418 -4.4545,1.254 -0.9982,0.836 -1.4973,1.8529 -1.4973,3.0507 0,0.8735 0.4118,1.6595 1.2353,2.3583 0.7986,0.7237 2.6951,1.3975 5.6898,2.0213 7.4116,1.5972 12.7208,3.213 15.9275,4.8475 3.2067,1.6346 5.54,3.6622 6.9999,6.0828 1.4598,2.4207 2.1898,5.1283 2.1898,8.1229 0,3.5186 -0.9733,6.7628 -2.9198,9.73244 -1.9465,2.96965 -4.6665,5.22184 -8.1603,6.75657 -3.4937,1.534737 -7.8982,2.302103 -13.2136,2.302103 -9.3332,0 -15.7966,-1.796761 -19.39008,-5.390283 C 5.16569,-8.04799 3.13186,-12.6148 2.65772,-18.1548 l 16.13338,-1.0107 c 0.3494,2.6203 1.0606,4.6167 2.1337,5.9893 1.7468,2.2209 4.2423,3.33145 7.4865,3.33145 2.4206,0 4.286,-0.56775 5.5962,-1.70315 1.3101,-1.1355 1.9652,-2.4519 1.9652,-3.9492 0,-1.4224 -0.6239,-2.6951 -1.8717,-3.8181 -1.2477,-1.123 -4.1425,-2.1835 -8.6843,-3.1817 -7.4366,-1.672 -12.7395,-3.893 -15.90883,-6.663 -3.19424,-2.77 -4.79136,-6.3012 -4.79136,-10.5934 0,-2.82 0.81727,-5.4839 2.45183,-7.9919 1.63455,-2.508 4.09266,-4.4794 7.37416,-5.9143 3.2816,-1.4349 7.7798,-2.1524 13.4945,-2.1524 z"
       stroke="#ffffff"
       stroke-width="2.55539"
       stroke-opacity="0.992157"
       fill="#784421"
       fill-rule="evenodd"
       id="path1"
       transform="matrix(1,0,0,1.04413,43.6181,413.383)" />
    <text
       fill="#000000"
       fill-opacity="0"
       font-family="Arial, Arial_MSFontService, sans-serif"
       font-size="56.7477px"
       x="2.6577201"
       y="-6.15765"
       id="text1">SP RGEL S</text>
    <path
       d="m 394.236,333.857 c -1.75,1.123 -6.994,-3.073 -8.12,-4.82 -1.121,-1.748 -2.76,-8.264 -1.014,-9.387 1.749,-1.123 6.994,3.073 8.119,4.82 1.122,1.748 2.761,8.264 1.015,9.387 z"
       fill="#90b816"
       transform="matrix(-1.3989,0,0,1,834.441,97.2609)"
       id="path2" />
    <path
       d="m 533.602,489.245 h 13.616 v 64.528 h -13.616 z"
       stroke="#ffffff"
       stroke-width="2.4453"
       stroke-opacity="0.992157"
       fill="#90b816"
       transform="matrix(1,0,0,1.04413,-98.6859,-165.088)"
       id="path3" />
    <path
       d="m 492.948,417.45 c -2.188,1.405 -8.746,-3.842 -10.153,-6.027 -1.402,-2.184 -3.451,-10.332 -1.268,-11.736 2.187,-1.405 8.745,3.842 10.152,6.027 1.403,2.184 3.452,10.332 1.269,11.736 z"
       fill="#90b816"
       transform="matrix(1.18369,0,0,1,-145.65,-44.4877)"
       id="path4" />
    <path
       d="m 497.593,421.384 c -2.208,1.418 -8.828,-3.878 -10.248,-6.083 -1.416,-2.206 -3.484,-10.43 -1.281,-11.848 2.209,-1.417 8.828,3.879 10.249,6.084 1.415,2.205 3.483,10.43 1.28,11.847 z"
       fill="#90b816"
       transform="matrix(1,0,0,1.02021,-58.2596,-75.7665)"
       id="path5" />
    <path
       d="m 519.395,439.847 c -2.305,1.48 -9.214,-4.048 -10.697,-6.35 -1.478,-2.302 -3.637,-10.887 -1.337,-12.366 2.305,-1.48 9.215,4.048 10.698,6.35 1.477,2.302 3.636,10.886 1.336,12.366 z"
       fill="#90b816"
       transform="matrix(1.10988,0,0,-1,-118.877,798.496)"
       id="path6" />
    <path
       d="m 469.093,397.249 c -2.082,1.336 -8.323,-3.657 -9.662,-5.736 -1.334,-2.079 -3.284,-9.832 -1.207,-11.168 2.082,-1.337 8.322,3.656 9.661,5.735 1.335,2.079 3.285,9.832 1.208,11.169 z"
       fill="#90b816"
       transform="matrix(1.28158,0,0,-1,-145.381,738.014)"
       id="path7" />
    <path
       d="m 553.522,554.497 c -2.738,-0.034 -5.462,-8.466 -5.428,-11.204 0.034,-2.74 2.968,-11.1 5.707,-11.066 2.738,0.035 5.462,8.466 5.428,11.205 -0.035,2.738 -2.968,11.099 -5.707,11.065 z"
       fill="#90b816"
       transform="matrix(1,0,0,1.0649,-111.905,-240.907)"
       id="path8" />
    <path
       d="m 252.934,503.19 h 53.106 v 51.701 h -53.106 z"
       fill="#784421"
       transform="matrix(1,0,0,1.04413,-100.445,-167.806)"
       id="path9" />
    <path
       d="m 114.975,182.739 -12.938,0.034 -12.9378,0.035 6.439,-11.222 6.4388,-11.222 6.499,11.187 z"
       fill="#784421"
       transform="matrix(2.26205,0,0,1,-51.4642,175.404)"
       id="path10" />
    <path
       d="m 264.722,484.105 9.921,17.711 10.088,17.61 -20.296,-0.261 -20.298,-0.067 10.375,-17.446 z"
       fill="#ffffff"
       transform="matrix(1,0,0,1.04735,-86.1009,-149.315)"
       id="path11" />
    <path
       d="m 290.092,539.04 c 0,2.863 -4.261,5.185 -9.516,5.185 -5.255,0 -9.515,-2.322 -9.515,-5.185 0,-2.864 4.26,-5.185 9.515,-5.185 5.255,0 9.516,2.321 9.516,5.185 z"
       fill="#90b816"
       transform="matrix(1,0,0,1.04413,-100.445,-167.806)"
       id="path12" />
    <path
       d="m 299.327,537.19 c 0,2.862 -2.256,5.182 -5.04,5.182 -2.784,0 -5.04,-2.32 -5.04,-5.177 -0.001,-2.862 2.255,-5.182 5.039,-5.182 2.783,0 5.04,2.315 5.041,5.177 h -5.04 z"
       fill="#90b816"
       transform="matrix(1,0,0,1.04413,-100.445,-167.806)"
       id="path13" />
    <path
       d="m 261.806,538.452 c 0,1.392 -1.065,2.52 -2.38,2.52 -1.314,0 -2.38,-1.128 -2.38,-2.52 0,-1.392 1.066,-2.52 2.38,-2.52 1.315,0 2.38,1.128 2.38,2.52 z"
       fill="#90b816"
       transform="matrix(1,0,0,1.04413,-100.445,-167.806)"
       id="path14" />
    <path
       d="m 268.996,538.508 c 0,1.392 -1.066,2.52 -2.38,2.52 -1.314,0 -2.38,-1.128 -2.38,-2.52 0,-1.391 1.066,-2.52 2.38,-2.52 1.314,0 2.38,1.129 2.38,2.52 z"
       fill="#90b816"
       transform="matrix(1,0,0,1.04413,-100.445,-167.806)"
       id="path15" />
    <path
       d="m 265.167,538.416 c 0,1.392 -1.066,2.52 -2.381,2.52 -1.314,0 -2.38,-1.128 -2.38,-2.52 0,-1.391 1.066,-2.52 2.38,-2.52 1.315,0 2.381,1.129 2.381,2.52 z"
       fill="#90b816"
       transform="matrix(1,0,0,1.04413,-100.445,-167.806)"
       id="path16" />
  </g>
</svg>
